HIERARCHY
ROOT pelvis
{
	OFFSET 0.000000 0.747927 -0.000000
	CHANNELS 6 Xposition Yposition Zposition Xrotation Yrotation Zrotation
	JOINT spine
	{
		OFFSET 0.000000 0.000000 0.000000
		CHANNELS 6 Xposition Yposition Zposition Xrotation Yrotation Zrotation
		JOINT spine.001
		{
			OFFSET 0.000000 0.242384 0.012703
			CHANNELS 3 Xrotation Yrotation Zrotation
			JOINT neck
			{
				OFFSET 0.000000 0.240908 -0.029580
				CHANNELS 6 Xposition Yposition Zposition Xrotation Yrotation Zrotation
				JOINT face
				{
					OFFSET 0.000000 0.205291 -0.003583
					CHANNELS 6 Xposition Yposition Zposition Xrotation Yrotation Zrotation
					End Site
					{
						OFFSET 0.000000 -0.007370 0.039307
					}
				}
			}
			JOINT shoulder.L
			{
				OFFSET 0.000000 0.240908 -0.029580
				CHANNELS 6 Xposition Yposition Zposition Yrotation Xrotation Zrotation
				JOINT upper_arm.L
				{
					OFFSET 0.166616 0.000000 0.000000
					CHANNELS 6 Xposition Yposition Zposition Xrotation Yrotation Zrotation
					JOINT forearm.L
					{
						OFFSET 0.270299 0.000934 -0.000113
						CHANNELS 6 Xposition Yposition Zposition Xrotation Yrotation Zrotation
						End Site
						{
							OFFSET 0.221017 -0.001285 0.003755
						}
					}
				}
			}
			JOINT shoulder.R
			{
				OFFSET 0.000000 0.240908 -0.029580
				CHANNELS 6 Xposition Yposition Zposition Yrotation Xrotation Zrotation
				JOINT upper_arm.R
				{
					OFFSET -0.166616 0.000000 0.000000
					CHANNELS 6 Xposition Yposition Zposition Xrotation Yrotation Zrotation
					JOINT forearm.R
					{
						OFFSET -0.270059 0.000934 -0.000113
						CHANNELS 6 Xposition Yposition Zposition Xrotation Yrotation Zrotation
						End Site
						{
							OFFSET -0.227122 -0.001286 0.003861
						}
					}
				}
			}
		}
	}
	JOINT pelvis.L
	{
		OFFSET 0.000000 0.000000 0.000000
		CHANNELS 6 Xposition Yposition Zposition Yrotation Xrotation Zrotation
		End Site
		{
			OFFSET 0.100005 0.000000 0.000000
		}
	}
	JOINT pelvis.R
	{
		OFFSET 0.000000 0.000000 0.000000
		CHANNELS 6 Xposition Yposition Zposition Yrotation Xrotation Zrotation
		End Site
		{
			OFFSET -0.100005 0.000000 0.000000
		}
	}
	JOINT thigh.L
	{
		OFFSET 0.100005 0.000000 0.000000
		CHANNELS 6 Xposition Yposition Zposition Xrotation Yrotation Zrotation
		JOINT shin.L
		{
			OFFSET 0.019004 -0.362610 0.000000
			CHANNELS 6 Xposition Yposition Zposition Xrotation Yrotation Zrotation
			JOINT foot.L
			{
				OFFSET 0.016952 -0.323469 0.000000
				CHANNELS 6 Xposition Yposition Zposition Xrotation Yrotation Zrotation
				End Site
				{
					OFFSET 0.015017 -0.064296 0.153116
				}
			}
		}
	}
	JOINT thigh.R
	{
		OFFSET -0.100005 0.000000 0.000000
		CHANNELS 6 Xposition Yposition Zposition Xrotation Yrotation Zrotation
		JOINT shin.R
		{
			OFFSET -0.018104 -0.345446 0.000000
			CHANNELS 6 Xposition Yposition Zposition Xrotation Yrotation Zrotation
			JOINT foot.R
			{
				OFFSET -0.017207 -0.328329 0.000000
				CHANNELS 6 Xposition Yposition Zposition Xrotation Yrotation Zrotation
				End Site
				{
					OFFSET -0.015899 -0.068073 0.162110
				}
			}
		}
	}
}
MOTION
Frames: 7
Frame Time: 0.041667
-0.016893 -0.012550 0.018924 -0.000000 -9.154548 0.000005 0.000000 -0.000000 0.000000 -11.342847 -0.165068 1.082322 10.014396 3.661462 -0.450165 -0.000000 0.240908 -0.029580 11.037510 9.702701 -1.392826 0.000000 0.205291 -0.003583 0.212518 -0.000001 0.000000 -0.000000 0.240908 -0.029580 -0.154720 -0.001698 -1.260219 0.166616 -0.000000 -0.000000 -4.571002 -5.440362 -79.966803 0.270299 0.000934 -0.000113 -0.882626 -15.559485 -6.590026 -0.000000 0.240908 -0.029580 -0.160820 -0.001835 -1.310026 -0.166616 -0.000000 0.000000 -3.822512 4.496985 80.522931 -0.270059 0.000934 -0.000113 -1.069457 10.949244 12.693580 -0.000000 -0.000000 -0.000000 0.000010 -0.000000 2.488248 0.000000 0.000000 -0.000000 -0.000002 0.000000 2.488283 0.099911 0.004342 0.000000 9.739104 0.224876 -3.360828 0.019004 -0.362610 0.000000 -4.040881 -0.362327 4.243530 0.016952 -0.323469 0.000000 -6.922659 7.384977 4.312694 -0.099911 -0.004342 0.000000 6.420899 -0.055382 5.012534 -0.018104 -0.345446 0.000000 -1.934907 0.159566 -3.428380 -0.017207 -0.328329 0.000000 -8.340592 -3.367570 -2.549900 
-0.016887 -0.012518 0.018901 -0.000000 -9.146186 0.000005 0.000000 -0.000000 0.000000 -11.340397 -0.164318 1.077531 10.014301 3.653647 -0.449235 -0.000000 0.240908 -0.029580 11.022055 9.703443 -1.389496 -0.000000 0.205291 -0.003583 0.220823 -0.000002 -0.000000 -0.000000 0.240908 -0.029580 -0.155587 -0.001717 -1.267133 0.166616 0.000000 0.000000 -4.576812 -5.449408 -79.945725 0.270299 0.000934 -0.000113 -0.882520 -15.526500 -6.606935 0.000000 0.240908 -0.029580 -0.161675 -0.001857 -1.316980 -0.166616 -0.000000 -0.000000 -3.826948 4.499905 80.551276 -0.270059 0.000934 -0.000113 -1.065875 10.953661 12.642324 0.000000 0.000000 0.000000 -0.000015 0.000001 2.490642 0.000000 0.000000 0.000000 0.000002 -0.000000 2.490608 0.099910 0.004346 -0.000000 9.727952 0.224257 -3.365183 0.019004 -0.362610 0.000000 -4.022176 -0.360958 4.252106 0.016952 -0.323469 0.000000 -6.935497 7.382853 4.314003 -0.099910 -0.004346 0.000000 6.421561 -0.054999 5.019585 -0.018104 -0.345446 0.000000 -1.943436 0.160393 -3.435493 -0.017207 -0.328329 0.000000 -8.330977 -3.373029 -2.551306 
-0.016854 -0.012517 0.018864 -0.000000 -9.123049 0.000005 0.000000 0.000000 -0.000000 -11.335211 -0.163689 1.073745 10.014117 3.631279 -0.446456 -0.000000 0.240908 -0.029580 11.006425 9.704230 -1.386459 -0.000000 0.205291 -0.003583 0.219676 -0.000002 -0.000000 0.000000 0.240908 -0.029580 -0.156590 -0.001740 -1.274732 0.166616 -0.000000 -0.000000 -4.582389 -5.457873 -79.927044 0.270299 0.000934 -0.000113 -0.882455 -15.496907 -6.622428 -0.000000 0.240908 -0.029580 -0.162674 -0.001876 -1.324578 -0.166616 0.000000 -0.000000 -3.826608 4.497335 80.579259 -0.270059 0.000934 -0.000113 -1.063428 10.969426 12.588685 -0.000000 -0.000000 0.000000 0.000002 -0.000000 2.488043 0.000000 0.000000 0.000000 -0.000003 0.000000 2.488044 0.099911 0.004341 -0.000000 9.711005 0.223479 -3.369613 0.019004 -0.362610 0.000000 -3.999715 -0.359255 4.261176 0.016952 -0.323469 0.000000 -6.940678 7.366753 4.307099 -0.099911 -0.004341 -0.000000 6.424163 -0.054440 5.029883 -0.018104 -0.345446 0.000000 -1.955887 0.161673 -3.450279 -0.017207 -0.328329 0.000000 -8.314180 -3.388236 -2.556603 
-0.016800 -0.012521 0.018817 -0.000000 -9.095675 0.000005 0.000000 -0.000000 0.000000 -11.327684 -0.163174 1.070869 10.013972 3.602736 -0.442938 -0.000000 0.240908 -0.029580 10.989055 9.704953 -1.382350 -0.000000 0.205291 -0.003583 0.218813 0.000002 0.000000 -0.000000 0.240908 -0.029580 -0.157523 -0.001766 -1.283517 0.166616 -0.000000 0.000000 -4.593824 -5.473282 -79.910631 0.270299 0.000934 -0.000113 -0.880926 -15.454334 -6.632813 -0.000000 0.240908 -0.029580 -0.163663 -0.001905 -1.333364 -0.166616 -0.000000 -0.000000 -3.825405 4.493899 80.603766 -0.270059 0.000934 -0.000113 -1.061832 10.988251 12.541309 -0.000000 -0.000000 -0.000000 0.000026 -0.000000 2.483496 0.000000 0.000000 -0.000000 -0.000003 0.000000 2.483464 0.099911 0.004333 0.000000 9.689883 0.222460 -3.375900 0.019004 -0.362610 0.000000 -3.972862 -0.357203 4.271445 0.016952 -0.323469 0.000000 -6.948290 7.344811 4.297803 -0.099911 -0.004333 0.000000 6.420122 -0.053765 5.041426 -0.018104 -0.345446 0.000000 -1.958225 0.162240 -3.471551 -0.017207 -0.328329 0.000000 -8.298674 -3.405746 -2.563235 
-0.016749 -0.012508 0.018776 -0.000000 -9.077677 0.000005 0.000000 -0.000000 -0.000000 -11.321242 -0.162826 1.068997 10.013781 3.582552 -0.440465 0.000000 0.240908 -0.029580 10.972297 9.703574 -1.378352 0.000000 0.205291 -0.003583 0.228453 -0.000000 0.000000 -0.000000 0.240908 -0.029580 -0.158549 -0.001782 -1.291208 0.166616 0.000000 0.000000 -4.610312 -5.494361 -79.897729 0.270299 0.000934 -0.000113 -0.877725 -15.400296 -6.635611 -0.000000 0.240908 -0.029580 -0.164662 -0.001921 -1.341056 -0.166616 0.000000 -0.000000 -3.824840 4.491959 80.619489 -0.270059 0.000934 -0.000113 -1.060902 11.001717 12.510127 0.000000 0.000000 0.000000 -0.000026 0.000000 2.480323 0.000000 0.000000 0.000000 -0.000003 0.000000 2.480287 0.099911 0.004328 0.000000 9.671603 0.221545 -3.381669 0.019004 -0.362610 0.000000 -3.948692 -0.355283 4.278691 0.016952 -0.323469 0.000000 -6.962579 7.332172 4.294224 -0.099911 -0.004328 -0.000000 6.408772 -0.053136 5.050846 -0.018104 -0.345446 0.000000 -1.948200 0.161776 -3.493497 -0.017207 -0.328329 0.000000 -8.290554 -3.415164 -2.566833 
-0.016715 -0.012478 0.018754 -0.000000 -9.073368 0.000005 -0.000000 -0.000000 0.000000 -11.318350 -0.162633 1.067835 10.013704 3.576377 -0.439710 -0.000000 0.240908 -0.029580 10.957871 9.697888 -1.375910 -0.000000 0.205291 -0.003583 0.248316 -0.000004 -0.000000 0.000000 0.240908 -0.029580 -0.158962 -0.001794 -1.294728 0.166616 -0.000000 -0.000000 -4.624244 -5.511723 -79.890961 0.270299 0.000934 -0.000113 -0.873811 -15.351419 -6.629437 0.000000 0.240908 -0.029580 -0.165072 -0.001935 -1.344535 -0.166616 -0.000000 0.000000 -3.824563 4.491192 80.624830 -0.270059 0.000934 -0.000113 -1.060436 11.007920 12.495371 -0.000000 -0.000000 -0.000000 0.000026 -0.000001 2.479600 -0.000000 -0.000000 -0.000000 0.000003 -0.000000 2.479565 0.099911 0.004327 0.000000 9.660766 0.221051 -3.384619 0.019004 -0.362610 0.000000 -3.933503 -0.353986 4.281114 0.016952 -0.323469 0.000000 -6.975039 7.335019 4.297885 -0.099911 -0.004326 -0.000000 6.398222 -0.052691 5.057113 -0.018104 -0.345446 0.000000 -1.938003 0.161249 -3.511611 -0.017207 -0.328329 0.000000 -8.287134 -3.413553 -2.565534 
-0.016697 -0.012442 0.018745 -0.000000 -9.077076 0.000005 0.000000 -0.000000 -0.000000 -11.318263 -0.162439 1.066622 10.013786 3.578874 -0.440005 0.000000 0.240908 -0.029580 10.944632 9.686570 -1.373313 -0.000000 0.205291 -0.003583 0.269860 0.000000 -0.000000 0.000000 0.240908 -0.029580 -0.158770 -0.001787 -1.293389 0.166616 -0.000000 -0.000000 -4.631814 -5.520742 -79.891336 0.270299 0.000934 -0.000113 -0.869326 -15.309690 -6.614499 0.000000 0.240908 -0.029580 -0.164943 -0.001931 -1.343237 -0.166616 -0.000000 0.000000 -3.828593 4.496035 80.624714 -0.270059 0.000934 -0.000113 -1.058689 10.999669 12.485661 -0.000000 -0.000000 0.000000 0.000015 -0.000001 2.479564 0.000000 0.000000 0.000000 -0.000002 0.000000 2.479533 0.099911 0.004326 -0.000000 9.656250 0.220833 -3.385942 0.019004 -0.362610 0.000000 -3.926993 -0.353385 4.280520 0.016952 -0.323469 0.000000 -6.975379 7.345887 4.303250 -0.099911 -0.004327 -0.000000 6.393481 -0.052306 5.063402 -0.018104 -0.345446 0.000000 -1.936000 0.161357 -3.528003 -0.017207 -0.328329 0.000000 -8.283424 -3.407330 -2.561872 
